<svg width="49" height="48" viewBox="0 0 49 48" fill="none" xmlns="http://www.w3.org/2000/svg">
<path d="M10.4167 8.41669H45.8333L41.6667 27.1667H14.5833M14.5833 27.1667L8.33333 2.16669H0M14.5833 27.1667L16.6667 35.5H43.75M39.5833 45.9167C39.0308 45.9167 38.5009 45.6972 38.1102 45.3065C37.7195 44.9158 37.5 44.3859 37.5 43.8334C37.5 43.2808 37.7195 42.7509 38.1102 42.3602C38.5009 41.9695 39.0308 41.75 39.5833 41.75C40.1359 41.75 40.6658 41.9695 41.0565 42.3602C41.4472 42.7509 41.6667 43.2808 41.6667 43.8334C41.6667 44.3859 41.4472 44.9158 41.0565 45.3065C40.6658 45.6972 40.1359 45.9167 39.5833 45.9167ZM18.75 45.9167C18.1975 45.9167 17.6676 45.6972 17.2769 45.3065C16.8862 44.9158 16.6667 44.3859 16.6667 43.8334C16.6667 43.2808 16.8862 42.7509 17.2769 42.3602C17.6676 41.9695 18.1975 41.75 18.75 41.75C19.3025 41.75 19.8324 41.9695 20.2231 42.3602C20.6138 42.7509 20.8333 43.2808 20.8333 43.8334C20.8333 44.3859 20.6138 44.9158 20.2231 45.3065C19.8324 45.6972 19.3025 45.9167 18.75 45.9167Z" stroke="#0FA958" stroke-width="4.16667"/>
</svg>
